<mxfile host="Electron" modified="2023-08-07T15:12:52.895Z" agent="Mozilla/5.0 (Macintosh; Intel Mac OS X 10_15_7) AppleWebKit/537.36 (KHTML, like Gecko) draw.io/21.6.5 Chrome/114.0.5735.243 Electron/25.3.1 Safari/537.36" etag="B6yCEN0eB_l37BPAkiMG" version="21.6.5" type="device">
  <diagram name="第 1 页" id="MV9iiwtvkkRCQwVIXTja">
    <mxGraphModel dx="849" dy="658" grid="1" gridSize="10" guides="1" tooltips="1" connect="1" arrows="1" fold="1" page="1" pageScale="1" pageWidth="3300" pageHeight="4681" math="0" shadow="0">
      <root>
        <mxCell id="0" />
        <mxCell id="1" parent="0" />
        <mxCell id="5pEuGjXElPdgstFfbfj8-7" value="&lt;b&gt;前端&lt;/b&gt;" style="rounded=1;whiteSpace=wrap;html=1;arcSize=3;align=center;verticalAlign=top;fontSize=15;fillColor=#f5f5f5;fontColor=#333333;strokeColor=none;" parent="1" vertex="1">
          <mxGeometry x="760" y="200" width="200" height="400" as="geometry" />
        </mxCell>
        <mxCell id="5pEuGjXElPdgstFfbfj8-1" value="&lt;b&gt;后端&lt;/b&gt;" style="rounded=1;whiteSpace=wrap;html=1;arcSize=3;verticalAlign=top;align=center;fontSize=15;fillColor=#f5f5f5;fontColor=#333333;strokeColor=none;" parent="1" vertex="1">
          <mxGeometry x="1160" y="200" width="200" height="400" as="geometry" />
        </mxCell>
        <mxCell id="5pEuGjXElPdgstFfbfj8-5" value="" style="endArrow=classic;html=1;rounded=0;exitX=1;exitY=0.5;exitDx=0;exitDy=0;entryX=0;entryY=0.25;entryDx=0;entryDy=0;fillColor=#d5e8d4;strokeColor=#82b366;strokeWidth=2;fontSize=12;" parent="1" source="5pEuGjXElPdgstFfbfj8-8" target="5pEuGjXElPdgstFfbfj8-9" edge="1">
          <mxGeometry width="50" height="50" relative="1" as="geometry">
            <mxPoint x="639.9999999999998" y="280.0000000000001" as="sourcePoint" />
            <mxPoint x="1158.0799999999997" y="280.0000000000001" as="targetPoint" />
          </mxGeometry>
        </mxCell>
        <mxCell id="5pEuGjXElPdgstFfbfj8-8" value="1.请求图形验证码" style="rounded=0;whiteSpace=wrap;html=1;fontSize=12;fillColor=#d5e8d4;strokeColor=#82b366;" parent="1" vertex="1">
          <mxGeometry x="780" y="250" width="160" height="30" as="geometry" />
        </mxCell>
        <mxCell id="5pEuGjXElPdgstFfbfj8-9" value="2.生成图形验证码+UUID，以UUID为key，验证码值为value，保存至Redis，并设置TTL，然后响应UUID和验证码图片给前端" style="rounded=0;whiteSpace=wrap;html=1;fontSize=12;fillColor=#dae8fc;strokeColor=#6c8ebf;" parent="1" vertex="1">
          <mxGeometry x="1180" y="250" width="160" height="80" as="geometry" />
        </mxCell>
        <mxCell id="5pEuGjXElPdgstFfbfj8-11" value="3.用户输入用户名、密码、验证码，然后将UUID一同发送给后端，请求登录" style="rounded=0;whiteSpace=wrap;html=1;fontSize=12;fillColor=#d5e8d4;strokeColor=#82b366;" parent="1" vertex="1">
          <mxGeometry x="780" y="310" width="160" height="50" as="geometry" />
        </mxCell>
        <mxCell id="5pEuGjXElPdgstFfbfj8-12" value="4.根据UUID从Redis中查询验证码，然后依次校验验证码、用户名和密码，若通过校验，则登录成功，生成JWT并响应给前端" style="rounded=0;whiteSpace=wrap;html=1;fontSize=12;fillColor=#dae8fc;strokeColor=#6c8ebf;" parent="1" vertex="1">
          <mxGeometry x="1180" y="360" width="160" height="80" as="geometry" />
        </mxCell>
        <mxCell id="5pEuGjXElPdgstFfbfj8-14" value="6.携带JWT获取个人信息" style="rounded=0;whiteSpace=wrap;html=1;fontSize=12;fillColor=#d5e8d4;strokeColor=#82b366;" parent="1" vertex="1">
          <mxGeometry x="780" y="450" width="160" height="30" as="geometry" />
        </mxCell>
        <mxCell id="5pEuGjXElPdgstFfbfj8-15" value="7.验证JWT，若合法，则从数据库中查询用户信息，并响应给前端" style="rounded=0;whiteSpace=wrap;html=1;fontSize=12;fillColor=#dae8fc;strokeColor=#6c8ebf;" parent="1" vertex="1">
          <mxGeometry x="1180" y="470" width="160" height="50" as="geometry" />
        </mxCell>
        <mxCell id="5pEuGjXElPdgstFfbfj8-16" value="8.后续请求均携带JWT" style="rounded=0;whiteSpace=wrap;html=1;fontSize=12;fillColor=#d5e8d4;strokeColor=#82b366;" parent="1" vertex="1">
          <mxGeometry x="780" y="510" width="160" height="30" as="geometry" />
        </mxCell>
        <mxCell id="5pEuGjXElPdgstFfbfj8-17" value="9.后续请求均验证JWT" style="rounded=0;whiteSpace=wrap;html=1;fontSize=12;fillColor=#dae8fc;strokeColor=#6c8ebf;" parent="1" vertex="1">
          <mxGeometry x="1180" y="550" width="160" height="30" as="geometry" />
        </mxCell>
        <mxCell id="5pEuGjXElPdgstFfbfj8-18" value="" style="endArrow=classic;html=1;rounded=0;exitX=0;exitY=0.75;exitDx=0;exitDy=0;entryX=1;entryY=0.25;entryDx=0;entryDy=0;fillColor=#dae8fc;strokeColor=#6c8ebf;strokeWidth=2;fontSize=12;" parent="1" source="5pEuGjXElPdgstFfbfj8-9" target="5pEuGjXElPdgstFfbfj8-11" edge="1">
          <mxGeometry width="50" height="50" relative="1" as="geometry">
            <mxPoint x="550" y="580" as="sourcePoint" />
            <mxPoint x="1190" y="580" as="targetPoint" />
          </mxGeometry>
        </mxCell>
        <mxCell id="5pEuGjXElPdgstFfbfj8-19" value="" style="endArrow=classic;html=1;rounded=0;exitX=1;exitY=0.75;exitDx=0;exitDy=0;entryX=0;entryY=0.25;entryDx=0;entryDy=0;fillColor=#d5e8d4;strokeColor=#82b366;strokeWidth=2;fontSize=12;" parent="1" source="5pEuGjXElPdgstFfbfj8-11" target="5pEuGjXElPdgstFfbfj8-12" edge="1">
          <mxGeometry width="50" height="50" relative="1" as="geometry">
            <mxPoint x="1350" y="560" as="sourcePoint" />
            <mxPoint x="710" y="635" as="targetPoint" />
          </mxGeometry>
        </mxCell>
        <mxCell id="5pEuGjXElPdgstFfbfj8-20" value="" style="endArrow=classic;html=1;rounded=0;exitX=0;exitY=0.75;exitDx=0;exitDy=0;entryX=1;entryY=0.5;entryDx=0;entryDy=0;fillColor=#dae8fc;strokeColor=#6c8ebf;strokeWidth=2;fontSize=12;" parent="1" source="5pEuGjXElPdgstFfbfj8-12" target="f_mRJvcaQkd-jtfRzxOQ-1" edge="1">
          <mxGeometry width="50" height="50" relative="1" as="geometry">
            <mxPoint x="1230" y="285" as="sourcePoint" />
            <mxPoint x="590" y="360" as="targetPoint" />
          </mxGeometry>
        </mxCell>
        <mxCell id="5pEuGjXElPdgstFfbfj8-21" value="" style="endArrow=classic;html=1;rounded=0;exitX=1;exitY=0.5;exitDx=0;exitDy=0;entryX=0;entryY=0.25;entryDx=0;entryDy=0;fillColor=#d5e8d4;strokeColor=#82b366;strokeWidth=2;fontSize=12;" parent="1" source="5pEuGjXElPdgstFfbfj8-14" target="5pEuGjXElPdgstFfbfj8-15" edge="1">
          <mxGeometry width="50" height="50" relative="1" as="geometry">
            <mxPoint x="1240" y="295" as="sourcePoint" />
            <mxPoint x="600" y="370" as="targetPoint" />
          </mxGeometry>
        </mxCell>
        <mxCell id="5pEuGjXElPdgstFfbfj8-22" value="" style="endArrow=classic;html=1;rounded=0;exitX=0;exitY=0.75;exitDx=0;exitDy=0;entryX=1;entryY=0.25;entryDx=0;entryDy=0;fillColor=#dae8fc;strokeColor=#6c8ebf;strokeWidth=2;fontSize=12;" parent="1" source="5pEuGjXElPdgstFfbfj8-15" target="5pEuGjXElPdgstFfbfj8-16" edge="1">
          <mxGeometry width="50" height="50" relative="1" as="geometry">
            <mxPoint x="1230" y="385" as="sourcePoint" />
            <mxPoint x="590" y="450" as="targetPoint" />
          </mxGeometry>
        </mxCell>
        <mxCell id="5pEuGjXElPdgstFfbfj8-23" value="" style="endArrow=classic;html=1;rounded=0;exitX=1;exitY=0.75;exitDx=0;exitDy=0;entryX=0;entryY=0.5;entryDx=0;entryDy=0;fillColor=#d5e8d4;strokeColor=#82b366;strokeWidth=2;fontSize=12;" parent="1" source="5pEuGjXElPdgstFfbfj8-16" target="5pEuGjXElPdgstFfbfj8-17" edge="1">
          <mxGeometry width="50" height="50" relative="1" as="geometry">
            <mxPoint x="590" y="450" as="sourcePoint" />
            <mxPoint x="1230" y="480" as="targetPoint" />
          </mxGeometry>
        </mxCell>
        <mxCell id="f_mRJvcaQkd-jtfRzxOQ-1" value="5.将JWT保存至本地" style="rounded=0;whiteSpace=wrap;html=1;fontSize=12;fillColor=#d5e8d4;strokeColor=#82b366;" parent="1" vertex="1">
          <mxGeometry x="780" y="390" width="160" height="30" as="geometry" />
        </mxCell>
      </root>
    </mxGraphModel>
  </diagram>
</mxfile>
